<?xml version="1.0" standalone="no"?>
<!DOCTYPE svg PUBLIC "-//W3C//DTD SVG 1.1//EN" "http://www.w3.org/Graphics/SVG/1.1/DTD/svg11.dtd" >
<svg xmlns="http://www.w3.org/2000/svg">
<metadata></metadata>
<defs>
<font id="lobbyregular" horiz-adv-x="1433" >
<font-face units-per-em="2048" ascent="1638" descent="-410" />
<missing-glyph horiz-adv-x="1228" />
<glyph horiz-adv-x="2048" />
<glyph horiz-adv-x="2048" />
<glyph unicode="&#xd;" horiz-adv-x="2048" />
<glyph unicode=" "  horiz-adv-x="1228" />
<glyph unicode="&#x09;" horiz-adv-x="1228" />
<glyph unicode="&#xa0;" horiz-adv-x="1228" />
<glyph unicode="!" d="M0 717q0 145 57 278t153 229t229 153t278 57t278 -57t229 -153t153 -229t57 -278t-57 -278t-153 -229t-229 -153t-278 -57t-278 57t-229 153t-153 229t-57 278zM172 1028l541 -313v628q-170 -1 -314 -87t-227 -228z" />
<glyph unicode="#" d="M0 717q0 145 57 278t153 229t229 153t278 57t278 -57t229 -153t153 -229t57 -278t-57 -278t-153 -229t-229 -153t-278 -57t-278 57t-229 153t-153 229t-57 278zM395 1260l314 -543v626q-170 0 -314 -83z" />
<glyph unicode="$" horiz-adv-x="997" d="M102 416q73 -291 326 -342v-133h182v133q139 25 222 127t83 245q0 106 -59 189q-15 20 -31.5 38t-39.5 35t-39 28.5t-46.5 28.5t-43 23.5t-49.5 25t-46 22.5q-78 32 -134 86.5t-56 113.5q0 62 38 97.5t95 35.5q122 0 184 -133l164 103q-82 156 -242 202v140h-182v-135 q-114 -24 -183 -113.5t-69 -206.5q0 -59 13.5 -106t32.5 -78.5t58.5 -63.5t71 -51.5t90.5 -50.5q10 -5 43.5 -20.5t45 -21t40 -20.5t40 -23.5t32.5 -23.5t30 -27.5t20.5 -29.5t15.5 -35.5t4 -38.5q0 -81 -55 -134.5t-142 -53.5q-92 0 -149.5 57.5t-94.5 183.5z" />
<glyph unicode="0" d="M0 717q0 -145 57 -278t153 -229t229 -153t278 -57t278 57t229 153t153 229t57 278t-57 278t-153 229t-229 153t-278 57t-278 -57t-229 -153t-153 -229t-57 -278zM90 717q0 127 49.5 243t133.5 200t200.5 133.5t243.5 49.5t243 -49.5t200 -133.5t133.5 -200t49.5 -243 t-49.5 -243.5t-133.5 -200.5t-200 -133.5t-243 -49.5q-170 0 -314.5 84t-228.5 228.5t-84 314.5z" />
<glyph unicode="1" d="M0 717q0 145 57 278t153 229t229 153t278 57t278 -57t229 -153t153 -229t57 -278t-57 -278t-153 -229t-229 -153t-278 -57t-278 57t-229 153t-153 229t-57 278zM90 717q0 -170 84 -314.5t228.5 -228.5t314.5 -84q127 0 243 49.5t200 133.5t133.5 200.5t49.5 243.5 q0 170 -85.5 315t-227.5 228l-313 -543v626q-127 0 -243.5 -49.5t-200.5 -133.5t-133.5 -200t-49.5 -243z" />
<glyph unicode="2" d="M0 717q0 145 57 278t153 229t229 153t278 57t278 -57t229 -153t153 -229t57 -278t-57 -278t-153 -229t-229 -153t-278 -57t-278 57t-229 153t-153 229t-57 278zM90 715q0 -169 84 -313t228.5 -228t314.5 -84t315 84t229.5 228.5t84.5 314.5q0 171 -82 313l-541 -313v624 h-6q-127 0 -243.5 -49.5t-200.5 -133.5t-133.5 -200t-49.5 -243z" />
<glyph unicode="3" d="M0 717q0 145 57 278t153 229t229 153t278 57t278 -57t229 -153t153 -229t57 -278t-57 -278t-153 -229t-229 -153t-278 -57t-278 57t-229 153t-153 229t-57 278zM84 717q0 -170 85.5 -314.5t231.5 -228.5t316 -84q127 0 243 49.5t200 133.5t133.5 199.5t49.5 242.5h-636 v628q-124 0 -239 -49.5t-199 -133t-134.5 -200t-50.5 -243.5z" />
<glyph unicode="4" d="M0 717q0 145 57 278t153 229t229 153t278 57t278 -57t229 -153t153 -229t57 -278t-57 -278t-153 -229t-229 -153t-278 -57t-278 57t-229 153t-153 229t-57 278zM90 717q0 -170 84 -314.5t228.5 -228.5t314.5 -84q171 0 315.5 84.5t227.5 226.5l-547 316v626 q-169 -1 -312.5 -85t-227 -228t-83.5 -313z" />
<glyph unicode="5" d="M0 717q0 145 57 278t153 229t229 153t278 57t278 -57t229 -153t153 -229t57 -278t-57 -278t-153 -229t-229 -153t-278 -57t-278 57t-229 153t-153 229t-57 278zM90 717q0 -170 84.5 -314.5t229 -228.5t313.5 -84q167 0 313 84l-311 543v626q-176 0 -320.5 -84 t-226.5 -227.5t-82 -314.5z" />
<glyph unicode="6" d="M0 717q0 145 57 278t153 229t229 153t278 57t278 -57t229 -153t153 -229t57 -278t-57 -278t-153 -229t-229 -153t-278 -57t-278 57t-229 153t-153 229t-57 278zM90 711q0 -170 84 -314.5t228.5 -228.5t314.5 -84v1253q-127 0 -243.5 -49.5t-200.5 -133.5t-133.5 -200 t-49.5 -243z" />
<glyph unicode="7" d="M0 717q0 145 57 278t153 229t229 153t278 57t278 -57t229 -153t153 -229t57 -278t-57 -278t-153 -229t-229 -153t-278 -57t-278 57t-229 153t-153 229t-57 278zM90 713q0 -170 87 -315t231 -226l315 543l-6 622q-102 0 -197.5 -31.5t-173 -89t-135.5 -134t-89.5 -172 t-31.5 -197.5z" />
<glyph unicode="8" d="M0 717q0 145 57 278t153 229t229 153t278 57t278 -57t229 -153t153 -229t57 -278t-57 -278t-153 -229t-229 -153t-278 -57t-278 57t-229 153t-153 229t-57 278zM107.5 811q-15.5 -103 1.5 -209t69 -196l551 309v628h-8q-127 0 -237 -44t-185 -117.5t-125.5 -170.5 t-66 -200z" />
<glyph unicode="9" d="M0 717q0 145 57 278t153 229t229 153t278 57t278 -57t229 -153t153 -229t57 -278t-57 -278t-153 -229t-229 -153t-278 -57t-278 57t-229 153t-153 229t-57 278zM90 711h623v632q-169 -1 -312.5 -85t-227 -228t-83.5 -313v-6z" />
<glyph unicode="&#x3c;" horiz-adv-x="1101" d="M41 532l1061 -612v1225z" />
<glyph unicode="&#x3e;" horiz-adv-x="1101" d="M0 -80l1061 612l-1061 613v-1225z" />
<glyph unicode="@" d="M0 717q0 145 57 278t153 229t229 153t278 57t278 -57t229 -153t153 -229t57 -278t-57 -278t-153 -229t-229 -153t-278 -57t-278 57t-229 153t-153 229t-57 278z" />
<glyph unicode="A" horiz-adv-x="4603" d="M410 651h3549l-150 -129l78 -82l307 271l-307 268l-78 -80l150 -131h-3549v-117z" />
<glyph unicode="B" horiz-adv-x="1253" d="M4 1010q28 203 191 329q109 83 241 101q34 5 68 5q96 1 188 -37q124 -50 207 -161q103 -136 103 -300q0 -17 -1 -33q-11 -184 -135 -316l387 -508l-127 -96l-385 506q-110 -62 -232 -62q-53 0 -109 12q-182 40 -298 191q-103 136 -103 297q0 36 5 72zM162 990 q-3 -25 -3 -50q0 -111 70 -205q86 -113 228 -131q25 -3 49 -3q113 0 207 71q111 84 130 226q3 26 3 51q0 112 -70 204q-89 115 -230 133q-25 3 -49 3q-111 0 -202 -70q-114 -89 -133 -229z" />
<glyph unicode="C" horiz-adv-x="1310" d="M0 711q0 95 67 162t162 67q93 0 164 -68l463 267q-6 24 -6 53q0 94 67 161.5t162 67.5t163.5 -67.5t68.5 -161.5q0 -95 -68.5 -163t-163.5 -68q-79 0 -143 51l-479 -277q2 -8 2 -24q0 -21 -2 -31l475 -274q62 53 149 53q94 0 162 -68t68 -162q0 -95 -68 -162t-164 -67 q-95 0 -162 67t-67 162q0 26 6 50l-467 266q-69 -66 -160 -66q-95 0 -162 68t-67 164zM147 711q0 -35 24.5 -58.5t59.5 -23.5q33 0 56.5 23.5t23.5 58.5q0 32 -24 57t-56 25q-35 0 -59.5 -24.5t-24.5 -57.5zM997 229q0 -35 24.5 -59.5t59.5 -24.5q33 0 56.5 24.5t23.5 59.5 q0 32 -24 57t-56 25q-35 0 -59.5 -24.5t-24.5 -57.5zM997 1192q0 -34 24.5 -58t59.5 -24q32 0 56 24t24 58t-24 58t-56 24q-35 0 -59.5 -24t-24.5 -58z" />
<glyph unicode="D" horiz-adv-x="1003" d="M0 0v1434h649l355 -353v-1081h-1004zM127 154h750v850h-287v286h-463v-1136z" />
<glyph unicode="E" horiz-adv-x="1003" d="M0 0v1434h649l355 -353v-1081h-1004zM127 154h750v850h-287v286h-463v-1136zM244 311h516v115h-516v-115zM244 541h516v114h-516v-114zM244 770h516v115h-516v-115z" />
<glyph unicode="F" horiz-adv-x="1224" d="M0 0v1434h221v231h649l355 -352v-1082h-221v-231h-1004zM127 154h750v850h-287v286h-463v-1136zM244 311h516v115h-516v-115zM244 541h516v114h-516v-114zM244 770h516v117h-516v-117zM348 1434h301l162 -160v248h-463v-88zM850 1235l154 -154v-696h94v850h-248z" />
<glyph unicode="G" horiz-adv-x="1464" d="M113 -154v1434h235v256h649l355 -352v-1082h-236v-256h-1003zM240 0h749v102h-641v1035h-108v-1137zM475 256h750v850h-287v287h-463v-1137zM592 414h516v114h-516v-114zM592 643h516v115h-516v-115zM592 872h516v117h-516v-117z" />
<glyph unicode="H" horiz-adv-x="1873" d="M113 61h231v1176h-231v-188v-988zM469 61v1176h115v258h700v-258h115v-1176h-930zM709 1237h450v129h-450v-129zM1524 61h237v988v188h-237v-1176z" />
<glyph unicode="I" horiz-adv-x="1894" d="M113 61v1176h471v258h700v-258h498v-1176h-1669zM256 213h133v881h-133v-881zM532 213h830v881h-830v-881zM709 1237h450v129h-450v-129zM1505 213h133v881h-133v-881z" />
<glyph unicode="J" horiz-adv-x="1591" d="M5 1064q-5 -35 -5 -70q0 -102 41 -198q55 -131 166 -233l588 -561l589 559v2q65 62 111 127q66 99 87 209q10 46 10 92q0 64 -18 127q-29 108 -110 191q-124 121 -338 121q-160 0 -331 -140q-168 140 -330 140q-214 0 -338 -121q-103 -106 -122 -245zM178 975 q0 133 74.5 204.5t212.5 71.5q114 0 270 -143l60 -59l63 59q85 85 184 120q68 25 128 25q27 0 52 -5q81 -15 135 -86.5t54 -186.5q0 -134 -149 -283v-2l-467 -444l-465 446l-2 4q-48 39 -99 118.5t-51 160.5z" />
<glyph unicode="K" horiz-adv-x="1744" d="M72 246h880l144 -379l344 379h305v1188h-1673v-1188zM215 395v895h1387v-895h-220l-239 -272l-94 272h-834z" />
<glyph unicode="L" horiz-adv-x="929" d="M0 57q0 24 16.5 41t40.5 17q23 0 40.5 -17.5t17.5 -40.5q0 -24 -17 -40.5t-41 -16.5q-25 0 -41 16t-16 41zM0 287q0 24 16.5 40.5t40.5 16.5q23 0 40.5 -17t17.5 -40q0 -24 -17 -41t-41 -17q-25 0 -41 16.5t-16 41.5zM0 516q0 24 16.5 40.5t40.5 16.5q23 0 40.5 -17 t17.5 -40q0 -24 -17 -40.5t-41 -16.5q-25 0 -41 16t-16 41zM0 745q0 24 16.5 41t40.5 17q23 0 40.5 -17.5t17.5 -40.5q0 -24 -17 -40.5t-41 -16.5q-25 0 -41 16t-16 41zM188 0h742v115h-742v-115zM188 229h742v115h-742v-115zM188 459h742v114h-742v-114zM188 688h742v115 h-742v-115z" />
<glyph unicode="M" horiz-adv-x="1306" d="M41 1063l612 -1061l613 1061h-1225z" />
<glyph unicode="N" horiz-adv-x="1306" d="M41 2h1225l-613 1061z" />
<glyph unicode="O" horiz-adv-x="1024" d="M0 0v1024h870l203 346l123 -74l-172 -292v-1004h-1024zM143 143h738v617l-342 -582l-342 309l94 107l215 -191l280 478h-643v-738z" />
<glyph unicode="P" horiz-adv-x="1265" d="M-45 823v240h250l86 -92v698h364v-344h209v-65h205v-103h98l138 -121v-489l-117 -322v-356h-840v315zM82 877l393 -637v-240h586v246l117 317v408l-60 59h-49v-129h-102v232h-103v-185h-106v250h-103v-250h-127v594h-110v-823h-144v121l-94 96h-98v-59z" />
<glyph unicode="Q" horiz-adv-x="1437" d="M82 702q0 170 84 313.5t229 226.5t316 83q170 0 314.5 -83t229 -226.5t84.5 -313.5q0 -127 -50 -243.5t-134 -200.5t-200.5 -134t-243.5 -50q-128 0 -244.5 50t-201 134t-134 200t-49.5 244zM373 678h276v-600h123l2 600h275l-338 428z" />
<glyph unicode="S" horiz-adv-x="1572" d="M41 885h580l182 549l184 -549h545l-424 -332l147 -553l-452 342l-459 -342l150 553zM330 791l272 -201l-96 -352l297 223l291 -221l-93 350l259 201h-340l-117 346l-115 -346h-358z" />
<glyph unicode="V" horiz-adv-x="1126" d="M0 424l387 -471l739 1198l-129 84l-624 -1026l-260 309z" />
<glyph unicode="X" horiz-adv-x="1024" d="M0 55l406 404l-406 403l106 111l406 -406l406 406l106 -111l-406 -403l406 -404l-106 -106l-406 403l-406 -403z" />
<glyph unicode="b" horiz-adv-x="1636" d="M0 727q0 -197 97.5 -364.5t265.5 -265t366 -97.5q229 0 412 127l53 41l346 -348l96 94l-348 348q33 41 39 53q129 186 129 412q0 198 -97.5 366t-265 265.5t-364.5 97.5q-148 0 -283 -57.5t-233 -155.5t-155.5 -233t-57.5 -283zM150 727q0 157 77.5 290.5t211 211.5 t290.5 78q156 0 289 -78t211 -211.5t78 -290.5q0 -156 -78 -289t-211 -210.5t-289 -77.5q-117 0 -224.5 46t-185 123.5t-123.5 184t-46 223.5z" />
<glyph unicode="i" horiz-adv-x="1228" d="M184 991q0 172 121 293t293 121t295 -121.5t123 -292.5q0 -152 -96.5 -266.5t-241.5 -142.5l-4 -629h-144l-6 627q-147 26 -243.5 141.5t-96.5 269.5zM330 991q0 -113 79 -191.5t191 -78.5q111 0 190.5 79t79.5 191t-79.5 190.5t-190.5 78.5q-113 0 -191.5 -78.5 t-78.5 -190.5z" />
<glyph unicode="|" horiz-adv-x="1263" d="M623 -410v2048h20v-2048h-20z" />
<glyph unicode="&#x2000;" horiz-adv-x="834" />
<glyph unicode="&#x2001;" horiz-adv-x="1669" />
<glyph unicode="&#x2002;" horiz-adv-x="834" />
<glyph unicode="&#x2003;" horiz-adv-x="1669" />
<glyph unicode="&#x2004;" horiz-adv-x="556" />
<glyph unicode="&#x2005;" horiz-adv-x="417" />
<glyph unicode="&#x2006;" horiz-adv-x="278" />
<glyph unicode="&#x2007;" horiz-adv-x="278" />
<glyph unicode="&#x2008;" horiz-adv-x="208" />
<glyph unicode="&#x2009;" horiz-adv-x="333" />
<glyph unicode="&#x200a;" horiz-adv-x="92" />
<glyph unicode="&#x202f;" horiz-adv-x="333" />
<glyph unicode="&#x205f;" horiz-adv-x="417" />
<glyph unicode="&#x25fc;" horiz-adv-x="1024" d="M0 0z" />
</font>
</defs>
</svg>
